# xmcd
#
# Track frame offsets: 
#        150
#        11776
#        21535
#        34101
#        45641
#        60823
#        80475
#        96117
#        110082
#        120999
#        134705
#        146812
#
# Disc length: 2145 seconds
#
# Revision: 0
# Processed by: cddbd v1.5.2PL0 Copyright (c) Steve Scherf et al.
# Submitted via: ExactAudioCopyFreeDBPlugin 1.0
#
DISCID=a5085f0c
DTITLE=Mammoth Penguins - Hide And Seek
DYEAR=2015
DGENRE=Fortuna Pop!
TTITLE0=Work It Out
TTITLE1=Propped Up
TTITLE2=Cries At The Movies
TTITLE3=Postcard
TTITLE4=Strength In My Legs
TTITLE5=We Won't Go There
TTITLE6=Chewing Gum
TTITLE7=Played
TTITLE8=Hermit
TTITLE9=March Of The Penguins
TTITLE10=Make A Difference
TTITLE11=When I Was Your Age
EXTD=
EXTT0=
EXTT1=
EXTT2=
EXTT3=
EXTT4=
EXTT5=
EXTT6=
EXTT7=
EXTT8=
EXTT9=
EXTT10=
EXTT11=
PLAYORDER=
